<svg xmlns="http://www.w3.org/2000/svg" xmlns:xlink="http://www.w3.org/1999/xlink" viewBox="0,0,256,256" width="48px" height="48px"><defs><linearGradient x1="32" y1="3.947" x2="32" y2="44.751" gradientUnits="userSpaceOnUse" id="color-1"><stop offset="0.006" stop-color="#ffcc66"></stop><stop offset="1" stop-color="#bb5c17"></stop></linearGradient><linearGradient x1="22.089" y1="13.14" x2="26.009" y2="45.672" gradientUnits="userSpaceOnUse" id="color-2"><stop offset="0" stop-color="#fed35d"></stop><stop offset="0.281" stop-color="#f6c648"></stop><stop offset="0.857" stop-color="#e3a513"></stop><stop offset="0.989" stop-color="#de9d06"></stop></linearGradient><linearGradient x1="9.803" y1="22.781" x2="21.335" y2="43.658" gradientUnits="userSpaceOnUse" id="color-3"><stop offset="0" stop-color="#ffd869"></stop><stop offset="0.983" stop-color="#ffdf26"></stop></linearGradient></defs><g fill="none" fill-rule="nonzero" stroke="none" stroke-width="1" stroke-linecap="butt" stroke-linejoin="miter" stroke-miterlimit="10" stroke-dasharray="" stroke-dashoffset="0" font-family="none" font-weight="none" font-size="none" text-anchor="none" style="mix-blend-mode: normal"><g transform="scale(5.33333,5.33333)"><path d="M27,44h10c1.105,0 2,-0.895 2,-2v-36c0,-1.105 -0.895,-2 -2,-2h-10c-1.105,0 -2,0.895 -2,2v36c0,1.105 0.895,2 2,2z" fill="url(#color-1)"></path><path d="M19,44h10c1.105,0 2,-0.895 2,-2v-26c0,-1.105 -0.895,-2 -2,-2h-10c-1.105,0 -2,0.895 -2,2v26c0,1.105 0.895,2 2,2z" fill="url(#color-2)"></path><path d="M11,44h10c1.105,0 2,-0.895 2,-2v-16c0,-1.105 -0.895,-2 -2,-2h-10c-1.105,0 -2,0.895 -2,2v16c0,1.105 0.895,2 2,2z" fill="url(#color-3)"></path></g></g></svg>